# xmcd CD database file
#
# Track frame offsets:
#	150
#	23753
#	47446
#	75694
#	91722
#	107582
#	121540
#	130035
#
# Disc length: 2072 seconds
#
# Revision: 1
# Processed by: cddbd v1.5.1PL2 Copyright (c) Steve Scherf et al.
# Submitted via: CDex 1.51
#
DISCID=4b081608
DTITLE=The Electric Church - Instant Absolution
DYEAR=2006
DGENRE=Blues
TTITLE0=Estacion Heartache
TTITLE1=Four Rules
TTITLE2=What's Wrong With Sundays ?
TTITLE3=Fallen Angel
TTITLE4=In Need
TTITLE5=Twisted Soul
TTITLE6=Fistfunk
TTITLE7=Absolution
EXTD=YEAR: 2006
EXTT0=
EXTT1=
EXTT2=
EXTT3=
EXTT4=
EXTT5=
EXTT6=
EXTT7=
PLAYORDER=
